<?xml version="1.0" standalone="no"?>
<!DOCTYPE svg PUBLIC "-//W3C//DTD SVG 20010904//EN"
 "http://www.w3.org/TR/2001/REC-SVG-20010904/DTD/svg10.dtd">
<svg version="1.0" xmlns="http://www.w3.org/2000/svg"
 width="512.000000pt" height="512.000000pt" viewBox="0 0 512.000000 512.000000"
 preserveAspectRatio="xMidYMid meet">

<g transform="translate(0.000000,512.000000) scale(0.100000,-0.100000)"
fill="#000000" stroke="none">
<path d="M720 3640 c0 -6 33 -10 80 -10 47 0 80 4 80 10 0 6 -33 10 -80 10
-47 0 -80 -4 -80 -10z"/>
<path d="M1040 3640 c0 -6 33 -10 80 -10 47 0 80 4 80 10 0 6 -33 10 -80 10
-47 0 -80 -4 -80 -10z"/>
<path d="M1680 3640 c0 -6 33 -10 80 -10 47 0 80 4 80 10 0 6 -33 10 -80 10
-47 0 -80 -4 -80 -10z"/>
<path d="M2000 3640 c0 -6 33 -10 80 -10 47 0 80 4 80 10 0 6 -33 10 -80 10
-47 0 -80 -4 -80 -10z"/>
<path d="M2320 3640 c0 -6 33 -10 80 -10 47 0 80 4 80 10 0 6 -33 10 -80 10
-47 0 -80 -4 -80 -10z"/>
<path d="M2640 3640 c0 -6 33 -10 80 -10 47 0 80 4 80 10 0 6 -33 10 -80 10
-47 0 -80 -4 -80 -10z"/>
<path d="M2960 3640 c0 -6 33 -10 80 -10 47 0 80 4 80 10 0 6 -33 10 -80 10
-47 0 -80 -4 -80 -10z"/>
<path d="M3280 3640 c0 -6 33 -10 80 -10 47 0 80 4 80 10 0 6 -33 10 -80 10
-47 0 -80 -4 -80 -10z"/>
<path d="M4240 3640 c0 -6 33 -10 80 -10 47 0 80 4 80 10 0 6 -33 10 -80 10
-47 0 -80 -4 -80 -10z"/>
<path d="M4720 3640 c0 -6 33 -10 80 -10 47 0 80 4 80 10 0 6 -33 10 -80 10
-47 0 -80 -4 -80 -10z"/>
<path d="M758 3603 c23 -2 61 -2 85 0 23 2 4 4 -43 4 -47 0 -66 -2 -42 -4z"/>
<path d="M1078 3603 c23 -2 61 -2 85 0 23 2 4 4 -43 4 -47 0 -66 -2 -42 -4z"/>
<path d="M1680 3598 c0 -5 -10 -8 -22 -8 -53 0 -128 -75 -128 -127 0 -23 -1
-23 -165 -23 l-165 0 0 -80 0 -80 160 0 160 0 0 -80 0 -80 -160 0 -160 0 0
-80 0 -80 160 0 160 0 0 -80 0 -80 -160 0 -160 0 0 -80 0 -80 160 0 160 0 0
-80 0 -80 -160 0 -160 0 0 -80 0 -80 160 0 160 0 0 -80 0 -80 -160 0 -160 0 0
-80 0 -80 160 0 160 0 0 -80 0 -80 -160 0 -160 0 0 -80 0 -80 160 0 159 0 11
-39 c13 -51 60 -98 111 -111 l39 -11 0 -159 0 -160 80 0 80 0 0 160 0 160 80
0 80 0 0 -160 0 -160 80 0 80 0 0 160 0 160 80 0 80 0 0 -160 0 -160 80 0 80
0 0 160 0 160 80 0 80 0 0 -160 0 -160 80 0 80 0 0 160 0 160 80 0 80 0 0
-160 0 -160 80 0 80 0 0 160 0 160 80 0 80 0 0 -160 0 -160 80 0 80 0 0 160 0
159 39 11 c51 13 98 60 111 111 l11 39 159 0 160 0 0 80 0 80 -160 0 -160 0 0
80 0 80 160 0 160 0 0 80 0 80 -160 0 -160 0 0 80 0 80 160 0 160 0 0 80 0 80
-160 0 -160 0 0 80 0 80 160 0 160 0 0 80 0 80 -160 0 -160 0 0 80 0 80 160 0
160 0 0 80 0 80 -160 0 -160 0 0 80 0 80 160 0 160 0 0 80 0 80 -165 0 c-164
0 -165 0 -165 23 0 52 -75 127 -127 127 -13 0 -23 3 -23 8 0 4 -396 7 -880 7
-484 0 -880 -3 -880 -7z m1760 -1038 l0 -880 -880 0 -880 0 0 880 0 880 880 0
880 0 0 -880z"/>
<path d="M2999 3270 c-126 -23 -211 -149 -188 -277 38 -200 305 -255 422 -86
115 166 -35 399 -234 363z m98 -172 c51 -48 15 -138 -56 -138 -47 0 -81 32
-81 79 0 72 84 109 137 59z"/>
<path d="M2000 2800 l0 -320 80 0 80 0 0 240 0 240 240 0 240 0 0 80 0 80
-320 0 -320 0 0 -320z"/>
<path d="M2960 2400 l0 -240 -240 0 -240 0 0 -80 0 -80 320 0 320 0 0 320 0
320 -80 0 -80 0 0 -240z"/>
<path d="M2018 2306 c-205 -56 -235 -337 -45 -435 135 -69 304 10 336 159 37
171 -122 322 -291 276z m119 -168 c51 -48 15 -138 -56 -138 -47 0 -81 32 -81
79 0 72 84 109 137 59z"/>
<path d="M4240 3285 l0 -325 80 0 80 0 0 325 0 325 -80 0 -80 0 0 -325z"/>
<path d="M4720 3525 l0 -85 80 0 80 0 0 85 0 85 -80 0 -80 0 0 -85z"/>
<path d="M720 3320 l0 -120 -240 0 -240 0 0 -600 0 -600 80 0 80 0 0 520 0
520 240 0 240 0 0 200 0 200 -80 0 -80 0 0 -120z"/>
<path d="M4759 3270 c-126 -23 -211 -149 -188 -277 38 -200 305 -255 422 -86
115 166 -35 399 -234 363z m98 -172 c51 -48 15 -138 -56 -138 -47 0 -81 32
-81 79 0 72 84 109 137 59z"/>
<path d="M751 2869 c-166 -31 -241 -235 -137 -371 119 -157 374 -101 415 92
36 167 -107 310 -278 279z m106 -171 c51 -48 15 -138 -56 -138 -47 0 -81 32
-81 79 0 72 84 109 137 59z"/>
<path d="M4257 2786 c-184 -50 -232 -296 -79 -412 109 -84 270 -54 339 63 l25
43 89 0 89 0 0 -880 0 -880 80 0 80 0 0 960 0 960 -169 0 -169 0 -26 44 c-51
87 -158 130 -259 102z m120 -168 c51 -48 15 -138 -56 -138 -47 0 -81 32 -81
79 0 72 84 109 137 59z"/>
<path d="M720 1840 l0 -400 80 0 80 0 0 400 0 400 -80 0 -80 0 0 -400z"/>
<path d="M4240 1440 l0 -720 -800 0 -800 0 0 -80 0 -80 880 0 880 0 0 800 0
800 -80 0 -80 0 0 -720z"/>
<path d="M257 1826 c-100 -28 -172 -121 -172 -226 0 -110 78 -206 188 -230
161 -37 314 116 277 277 -29 133 -163 215 -293 179z m120 -168 c51 -48 15
-138 -56 -138 -47 0 -81 32 -81 79 0 72 84 109 137 59z"/>
<path d="M240 1120 l0 -80 -80 0 -80 0 0 -400 0 -400 80 0 80 0 0 -80 0 -80
80 0 80 0 0 80 0 80 80 0 80 0 0 -80 0 -80 80 0 80 0 0 80 0 80 80 0 80 0 0
-80 0 -80 80 0 80 0 0 80 0 80 80 0 80 0 0 400 0 400 -80 0 -80 0 0 80 0 80
-80 0 -80 0 0 -80 0 -80 -80 0 -80 0 0 80 0 80 -80 0 -80 0 0 -80 0 -80 -80 0
-80 0 0 80 0 80 -80 0 -80 0 0 -80z m800 -480 l0 -240 -400 0 -400 0 0 240 0
240 400 0 400 0 0 -240z"/>
<path d="M400 640 l0 -80 80 0 80 0 0 80 0 80 -80 0 -80 0 0 -80z"/>
<path d="M720 640 l0 -80 80 0 80 0 0 80 0 80 -80 0 -80 0 0 -80z"/>
<path d="M1522 861 c-100 -35 -156 -113 -156 -221 0 -138 96 -234 234 -234
270 0 327 382 68 459 -65 19 -81 19 -146 -4z m133 -166 c50 -49 15 -135 -55
-135 -41 0 -80 39 -80 80 0 19 9 40 25 55 15 16 36 25 55 25 19 0 40 -9 55
-25z"/>
<path d="M2162 861 c-100 -35 -156 -113 -156 -221 0 -138 96 -234 234 -234
270 0 327 382 68 459 -65 19 -81 19 -146 -4z m133 -166 c50 -49 15 -135 -55
-135 -41 0 -80 39 -80 80 0 19 9 40 25 55 15 16 36 25 55 25 19 0 40 -9 55
-25z"/>
<path d="M4745 551 c-111 -29 -179 -116 -179 -231 0 -138 96 -234 234 -234
138 0 234 96 234 234 0 95 -44 169 -125 210 -42 22 -121 32 -164 21z m110
-176 c50 -49 15 -135 -55 -135 -41 0 -80 39 -80 80 0 41 39 80 80 80 19 0 40
-9 55 -25z"/>
<path d="M3280 320 l0 -80 560 0 560 0 0 80 0 80 -560 0 -560 0 0 -80z"/>
</g>
</svg>
